<?xml version="1.0" standalone="no"?>
<!DOCTYPE svg PUBLIC "-//W3C//DTD SVG 20010904//EN"
 "http://www.w3.org/TR/2001/REC-SVG-20010904/DTD/svg10.dtd">
<svg version="1.0" xmlns="http://www.w3.org/2000/svg"
 width="900.000000pt" height="900.000000pt" viewBox="0 0 900.000000 900.000000"
 preserveAspectRatio="xMidYMid meet">

<g transform="translate(0.000000,900.000000) scale(0.100000,-0.100000)"
fill="#000000" stroke="none">
<path d="M6445 7279 c-864 -501 -1012 -587 -1314 -760 -167 -96 -318 -188
-335 -205 -18 -17 -37 -49 -44 -71 -19 -63 -17 -2421 2 -2467 20 -49 60 -76
114 -76 39 0 71 16 256 122 387 223 520 299 681 393 191 111 721 417 785 453
242 136 410 238 432 264 14 16 31 50 37 73 8 31 11 406 11 1235 0 1274 2 1229
-49 1274 -14 13 -40 20 -74 23 -52 3 -53 2 -502 -258z"/>
<path d="M2580 6333 c-8 -3 -25 -15 -37 -26 l-23 -20 0 -863 0 -862 25 -31
c14 -16 76 -59 138 -94 164 -95 408 -235 522 -302 95 -55 304 -176 648 -374
176 -101 209 -110 253 -66 l24 24 -2 866 -3 865 -30 29 c-16 16 -129 87 -250
156 -121 70 -249 144 -285 165 -36 21 -139 80 -230 133 -91 52 -282 162 -425
245 -256 148 -295 167 -325 155z"/>
<path d="M2670 3524 c-384 -223 -480 -279 -580 -337 -134 -78 -142 -84 -138
-121 3 -29 27 -44 448 -288 354 -205 450 -257 469 -253 42 10 891 506 902 527
8 14 7 25 -4 42 -9 13 -154 103 -324 201 -169 98 -365 212 -434 252 -70 40
-137 73 -150 73 -13 0 -98 -43 -189 -96z"/>
<path d="M5302 3222 c-111 -64 -205 -125 -208 -134 -3 -10 -1 -25 5 -35 14
-27 398 -246 430 -246 24 1 373 195 414 231 24 21 21 59 -5 76 -93 60 -396
226 -412 226 -12 0 -112 -53 -224 -118z"/>
<path d="M4030 2486 c-30 -18 -147 -86 -260 -151 -113 -64 -222 -128 -242
-141 l-38 -24 0 -354 c0 -342 1 -355 19 -361 19 -6 35 3 301 157 47 28 126 73
175 101 50 27 102 59 118 69 l27 19 0 348 c0 412 4 400 -100 337z"/>
<path d="M4756 2494 c-14 -13 -16 -50 -16 -254 0 -212 2 -240 18 -258 9 -11
106 -70 215 -132 177 -100 201 -111 223 -101 l24 11 0 248 c0 288 14 253 -130
335 -52 30 -139 79 -192 110 -54 32 -104 57 -112 57 -8 0 -22 -7 -30 -16z"/>
</g>
</svg>
