<svg version="1.1" width="113.2" height="87.2" viewBox="0 0 113.2 87.2" xmlns="http://www.w3.org/2000/svg" xmlns:xlink="http://www.w3.org/1999/xlink" overflow="hidden"><defs></defs><g><path d=" M 110.7 36.1 L 105.8 36.1 L 105.8 17.9 L 110.5 17.9 C 111.3 17.9 112 17.2 112 16.4 C 112 15.6 111.3 14.9 110.5 14.9 L 105.8 14.9 L 105.8 10.2 C 105.8 8.8 104.7 7.7 103.3 7.7 L 80.8 7.7 C 79.4 7.7 78.3 8.8 78.3 10.2 L 78.3 14.9 L 73.6 14.9 C 72.8 14.9 72.1 15.6 72.1 16.4 C 72.1 17.2 72.8 17.9 73.6 17.9 L 78.3 17.9 L 78.3 36.1 L 33.3 36.1 L 26.3 3.2 C 26.3 3.1 26.2 3.1 26.2 3 L 28.8 3 C 29.6 3 30.3 2.3 30.3 1.5 C 30.3 0.7 29.7 0 28.9 0 L 20.9 0 C 20.1 0 19.4 0.7 19.4 1.5 C 19.4 2.3 20.1 3 20.9 3 L 23.5 3 C 23.5 3.1 23.4 3.1 23.4 3.1 L 15.4 36 L 5.8 36 C 4.9 36 4 36.5 3.5 37.3 C 3.1 37.9 3.1 38.7 3.5 39.3 L 14 54.6 L 10.1 60.8 C 9.8 61.3 9.8 61.8 10.1 62.3 C 10.4 62.8 10.9 63.1 11.4 63.1 L 22 63.1 C 21.6 68.2 19 84.2 1.5 84.2 C 0.7 84.2 0 84.9 0 85.7 C 0 86.5 0.7 87.2 1.5 87.2 C 21.5 87.2 24.5 68.6 25 63.1 L 27.4 63.1 L 27.4 85.7 C 27.4 86.5 28.1 87.2 28.9 87.2 C 29.7 87.2 30.4 86.5 30.4 85.7 L 30.4 63.1 L 32.1 63.1 C 32.6 68.6 35.6 87.2 55.6 87.2 C 56.4 87.2 57.1 86.5 57.1 85.7 C 57.1 84.9 56.4 84.2 55.6 84.2 C 38.1 84.2 35.5 68.2 35.1 63.1 L 101.6 63.1 C 102 63.1 102.5 62.9 102.8 62.6 L 112.8 50.6 C 113 50.3 113.1 50 113.1 49.6 L 113.1 38.6 C 113.2 37.2 112 36.1 110.7 36.1 Z M 81.3 10.7 L 102.7 10.7 L 102.7 14.9 L 81.3 14.9 L 81.3 10.7 Z M 81.3 17.9 L 102.7 17.9 L 102.7 36.1 L 81.3 36.1 L 81.3 17.9 Z M 24.8 10.3 L 30.3 36.1 L 18.5 36.1 L 24.8 10.3 Z M 110.2 49 L 101 60 L 14.1 60 L 17.1 55.3 C 17.4 54.8 17.4 54.1 17.1 53.6 L 6.9 39.1 L 32.1 39.1 C 32.1 39.1 32.1 39.1 32.1 39.1 L 80.8 39.1 L 103.2 39.1 L 110.1 39.1 L 110.1 49 Z" stroke="#333333" stroke-width="1" stroke-linecap="butt" stroke-opacity="1" fill="#000000" fill-opacity="1"/><path d=" M 94.1 20.9 L 85.9 20.9 C 85.1 20.9 84.4 21.6 84.4 22.4 C 84.4 23.2 85.1 23.9 85.9 23.9 L 94.1 23.9 C 94.9 23.9 95.6 23.2 95.6 22.4 C 95.6 21.6 94.9 20.9 94.1 20.9 Z" stroke="#333333" stroke-width="1" stroke-linecap="butt" stroke-opacity="1" fill="#000000" fill-opacity="1"/><path d=" M 94.1 26 L 85.9 26 C 85.1 26 84.4 26.7 84.4 27.5 C 84.4 28.3 85 29 85.9 29 L 94.1 29 C 94.9 29 95.6 28.3 95.6 27.5 C 95.6 26.7 94.9 26 94.1 26 Z" stroke="#333333" stroke-width="1" stroke-linecap="butt" stroke-opacity="1" fill="#000000" fill-opacity="1"/></g></svg>